<svg width="100%"
 viewBox="0.00 0.00 620.00 311.00" xmlns="http://www.w3.org/2000/svg" xmlns:xlink="http://www.w3.org/1999/xlink">
<g id="graph0" class="graph" transform="scale(1 1) rotate(0) translate(4 307)">
<title>G</title>
<polygon fill="white" stroke="none" points="-4,4 -4,-307 616,-307 616,4 -4,4"/>
<!-- App(vname, (&quot;&quot;, /path/of/flow2.js, &quot;&quot;, /path/of/flow2.js, js)) -->
<g id="node1" class="node"><title>App(vname, (&quot;&quot;, /path/of/flow2.js, &quot;&quot;, /path/of/flow2.js, js))</title>
<polygon fill="none" stroke="black" points="288,-175 288,-197 550,-197 550,-175 288,-175"/>
<text text-anchor="start" x="292.5" y="-182.3" font-family="Times,serif" font-size="14.00">(&quot;&quot;, /path/of/flow2.js, &quot;&quot;, /path/of/flow2.js, js)</text>
<polygon fill="none" stroke="black" points="288,-152 288,-173 455,-173 455,-152 288,-152"/>
<text text-anchor="start" x="325.5" y="-158.8" font-family="Times,serif" font-size="14.00">/kythe/node/kind</text>
<polygon fill="none" stroke="black" points="457,-152 457,-173 550,-173 550,-152 457,-152"/>
<text text-anchor="start" x="494" y="-158.8" font-family="Times,serif" font-size="14.00">file</text>
<polygon fill="none" stroke="black" points="288,-129 288,-150 455,-150 455,-129 288,-129"/>
<text text-anchor="start" x="342.5" y="-135.8" font-family="Times,serif" font-size="14.00">/kythe/text</text>
<polygon fill="none" stroke="black" points="457,-129 457,-150 550,-150 550,-129 457,-129"/>
<text text-anchor="start" x="497.5" y="-135.8" font-family="Times,serif" font-size="14.00">...</text>
<polygon fill="none" stroke="black" points="285,-126 285,-200 553,-200 553,-126 285,-126"/>
</g>
<!-- App(vname, (7&#45;0&#45;7&#45;2, /path/of/flow2.js, &quot;&quot;, /path/of/flow2.js, js)) -->
<g id="node2" class="node"><title>App(vname, (7&#45;0&#45;7&#45;2, /path/of/flow2.js, &quot;&quot;, /path/of/flow2.js, js))</title>
<ellipse fill="none" stroke="black" cx="42" cy="-218" rx="18.6979" ry="18.6979"/>
<text text-anchor="middle" x="42" y="-214.3" font-family="Times,serif" font-size="14.00">@</text>
</g>
<!-- App(vname, (7&#45;0&#45;7&#45;2, /path/of/flow2.js, &quot;&quot;, /path/of/flow2.js, js))&#45;&gt;App(vname, (&quot;&quot;, /path/of/flow2.js, &quot;&quot;, /path/of/flow2.js, js)) -->
<g id="edge2" class="edge"><title>App(vname, (7&#45;0&#45;7&#45;2, /path/of/flow2.js, &quot;&quot;, /path/of/flow2.js, js))&#45;&gt;App(vname, (&quot;&quot;, /path/of/flow2.js, &quot;&quot;, /path/of/flow2.js, js))</title>
<path fill="none" stroke="black" d="M57.5875,-206.668C68.9929,-198.499 85.6124,-188.057 102,-183 154.184,-166.897 213.456,-160.28 266.455,-158.212"/>
<polygon fill="black" stroke="black" points="266.745,-161.704 276.62,-157.868 266.507,-154.708 266.745,-161.704"/>
<text text-anchor="middle" x="155" y="-186.8" font-family="Times,serif" font-size="14.00">/kythe/edge/childof</text>
</g>
<!-- App(vname, (id#3&#45;0&#45;6&#45;1, /path/of/flow2.js, &quot;&quot;, /path/of/flow2.js, js)) -->
<g id="node3" class="node"><title>App(vname, (id#3&#45;0&#45;6&#45;1, /path/of/flow2.js, &quot;&quot;, /path/of/flow2.js, js))</title>
<polygon fill="none" stroke="black" points="266,-274 266,-296 573,-296 573,-274 266,-274"/>
<text text-anchor="start" x="270.5" y="-281.3" font-family="Times,serif" font-size="14.00">(id#3&#45;0&#45;6&#45;1, /path/of/flow2.js, &quot;&quot;, /path/of/flow2.js, js)</text>
<polygon fill="none" stroke="black" points="266,-251 266,-272 446,-272 446,-251 266,-251"/>
<text text-anchor="start" x="310" y="-257.8" font-family="Times,serif" font-size="14.00">/kythe/node/kind</text>
<polygon fill="none" stroke="black" points="448,-251 448,-272 573,-272 573,-251 448,-251"/>
<text text-anchor="start" x="492" y="-257.8" font-family="Times,serif" font-size="14.00">js/todo</text>
<polygon fill="none" stroke="black" points="262.5,-248.5 262.5,-299.5 575.5,-299.5 575.5,-248.5 262.5,-248.5"/>
</g>
<!-- App(vname, (7&#45;0&#45;7&#45;2, /path/of/flow2.js, &quot;&quot;, /path/of/flow2.js, js))&#45;&gt;App(vname, (id#3&#45;0&#45;6&#45;1, /path/of/flow2.js, &quot;&quot;, /path/of/flow2.js, js)) -->
<g id="edge1" class="edge"><title>App(vname, (7&#45;0&#45;7&#45;2, /path/of/flow2.js, &quot;&quot;, /path/of/flow2.js, js))&#45;&gt;App(vname, (id#3&#45;0&#45;6&#45;1, /path/of/flow2.js, &quot;&quot;, /path/of/flow2.js, js))</title>
<path fill="none" stroke="black" d="M60.9248,-216.991C91.3313,-215.578 154.894,-213.911 208,-221 242.03,-225.542 278.499,-233.587 311.339,-242.057"/>
<polygon fill="black" stroke="black" points="310.846,-245.546 321.407,-244.696 312.621,-238.775 310.846,-245.546"/>
<text text-anchor="middle" x="155" y="-224.8" font-family="Times,serif" font-size="14.00">/kythe/edge/ref</text>
</g>
<!-- App(vname, (3&#45;0&#45;6&#45;1, /path/of/flow2.js, &quot;&quot;, /path/of/flow2.js, js)) -->
<g id="node4" class="node"><title>App(vname, (3&#45;0&#45;6&#45;1, /path/of/flow2.js, &quot;&quot;, /path/of/flow2.js, js))</title>
<ellipse fill="none" stroke="black" cx="42" cy="-285" rx="18.6979" ry="18.6979"/>
<text text-anchor="middle" x="42" y="-281.3" font-family="Times,serif" font-size="14.00">@</text>
</g>
<!-- App(vname, (3&#45;0&#45;6&#45;1, /path/of/flow2.js, &quot;&quot;, /path/of/flow2.js, js))&#45;&gt;App(vname, (&quot;&quot;, /path/of/flow2.js, &quot;&quot;, /path/of/flow2.js, js)) -->
<g id="edge4" class="edge"><title>App(vname, (3&#45;0&#45;6&#45;1, /path/of/flow2.js, &quot;&quot;, /path/of/flow2.js, js))&#45;&gt;App(vname, (&quot;&quot;, /path/of/flow2.js, &quot;&quot;, /path/of/flow2.js, js))</title>
<path fill="none" stroke="black" d="M59.576,-277.865C71.2871,-272.99 87.429,-266.605 102,-262 148.252,-247.382 161.484,-249.757 208,-236 236.848,-227.468 267.596,-217.365 296.412,-207.438"/>
<polygon fill="black" stroke="black" points="297.801,-210.661 306.105,-204.081 295.51,-204.047 297.801,-210.661"/>
<text text-anchor="middle" x="155" y="-265.8" font-family="Times,serif" font-size="14.00">/kythe/edge/childof</text>
</g>
<!-- App(vname, (3&#45;0&#45;6&#45;1, /path/of/flow2.js, &quot;&quot;, /path/of/flow2.js, js))&#45;&gt;App(vname, (id#3&#45;0&#45;6&#45;1, /path/of/flow2.js, &quot;&quot;, /path/of/flow2.js, js)) -->
<g id="edge3" class="edge"><title>App(vname, (3&#45;0&#45;6&#45;1, /path/of/flow2.js, &quot;&quot;, /path/of/flow2.js, js))&#45;&gt;App(vname, (id#3&#45;0&#45;6&#45;1, /path/of/flow2.js, &quot;&quot;, /path/of/flow2.js, js))</title>
<path fill="none" stroke="black" d="M61.087,-284.469C94.9021,-283.478 170.92,-281.248 244.148,-279.1"/>
<polygon fill="black" stroke="black" points="244.564,-282.589 254.457,-278.797 244.359,-275.592 244.564,-282.589"/>
<text text-anchor="middle" x="155" y="-287.8" font-family="Times,serif" font-size="14.00">/kythe/edge/defines</text>
</g>
<!-- App(vname, (5&#45;9&#45;5&#45;10, /path/of/flow2.js, &quot;&quot;, /path/of/flow2.js, js)) -->
<g id="node5" class="node"><title>App(vname, (5&#45;9&#45;5&#45;10, /path/of/flow2.js, &quot;&quot;, /path/of/flow2.js, js))</title>
<ellipse fill="none" stroke="blue" cx="42" cy="-37" rx="37.0935" ry="37.0935"/>
<text text-anchor="middle" x="42" y="-33.3" font-family="Times,serif" font-size="14.00">@x:4.9</text>
</g>
<!-- App(vname, (5&#45;9&#45;5&#45;10, /path/of/flow2.js, &quot;&quot;, /path/of/flow2.js, js))&#45;&gt;App(vname, (&quot;&quot;, /path/of/flow2.js, &quot;&quot;, /path/of/flow2.js, js)) -->
<g id="edge6" class="edge"><title>App(vname, (5&#45;9&#45;5&#45;10, /path/of/flow2.js, &quot;&quot;, /path/of/flow2.js, js))&#45;&gt;App(vname, (&quot;&quot;, /path/of/flow2.js, &quot;&quot;, /path/of/flow2.js, js))</title>
<path fill="none" stroke="black" d="M78.7561,-42.8983C112.866,-49.2619 165.235,-60.9748 208,-79 216.639,-82.6415 217.582,-85.8719 226,-90 246.452,-100.03 268.651,-109.599 290.452,-118.313"/>
<polygon fill="black" stroke="black" points="289.178,-121.573 299.765,-121.994 291.752,-115.063 289.178,-121.573"/>
<text text-anchor="middle" x="155" y="-82.8" font-family="Times,serif" font-size="14.00">/kythe/edge/childof</text>
</g>
<!-- App(vname, (x#3&#45;12&#45;3&#45;13, /path/of/flow2.js, &quot;&quot;, /path/of/flow2.js, js)) -->
<g id="node6" class="node"><title>App(vname, (x#3&#45;12&#45;3&#45;13, /path/of/flow2.js, &quot;&quot;, /path/of/flow2.js, js))</title>
<polygon fill="none" stroke="blue" points="238,-52 238,-74 601,-74 601,-52 238,-52"/>
<text text-anchor="start" x="242.5" y="-59.3" font-family="Times,serif" font-size="14.00">(x#3&#45;12&#45;3&#45;13, /path/of/flow2.js, &quot;&quot;, /path/of/flow2.js, js) = VarX</text>
<polygon fill="none" stroke="blue" points="238,-29 238,-50 446,-50 446,-29 238,-29"/>
<text text-anchor="start" x="296" y="-35.8" font-family="Times,serif" font-size="14.00">/kythe/node/kind</text>
<polygon fill="none" stroke="blue" points="448,-29 448,-50 601,-50 601,-29 448,-29"/>
<text text-anchor="start" x="506" y="-35.8" font-family="Times,serif" font-size="14.00">js/todo</text>
<polygon fill="none" stroke="blue" points="234.5,-26.5 234.5,-77.5 603.5,-77.5 603.5,-26.5 234.5,-26.5"/>
</g>
<!-- App(vname, (5&#45;9&#45;5&#45;10, /path/of/flow2.js, &quot;&quot;, /path/of/flow2.js, js))&#45;&gt;App(vname, (x#3&#45;12&#45;3&#45;13, /path/of/flow2.js, &quot;&quot;, /path/of/flow2.js, js)) -->
<g id="edge5" class="edge"><title>App(vname, (5&#45;9&#45;5&#45;10, /path/of/flow2.js, &quot;&quot;, /path/of/flow2.js, js))&#45;&gt;App(vname, (x#3&#45;12&#45;3&#45;13, /path/of/flow2.js, &quot;&quot;, /path/of/flow2.js, js))</title>
<path fill="none" stroke="black" d="M78.8362,-32.769C86.4707,-32.0322 94.4937,-31.3807 102,-31 149.051,-28.6137 160.947,-28.6532 208,-31 210.736,-31.1365 213.491,-31.2829 216.263,-31.4385"/>
<polygon fill="black" stroke="black" points="216.168,-34.939 226.359,-32.0412 216.586,-27.9515 216.168,-34.939"/>
<text text-anchor="middle" x="155" y="-34.8" font-family="Times,serif" font-size="14.00">/kythe/edge/ref</text>
</g>
<!-- App(vname, (3&#45;12&#45;3&#45;13, /path/of/flow2.js, &quot;&quot;, /path/of/flow2.js, js)) -->
<g id="node7" class="node"><title>App(vname, (3&#45;12&#45;3&#45;13, /path/of/flow2.js, &quot;&quot;, /path/of/flow2.js, js))</title>
<ellipse fill="none" stroke="blue" cx="42" cy="-138" rx="41.6928" ry="41.6928"/>
<text text-anchor="middle" x="42" y="-134.3" font-family="Times,serif" font-size="14.00">@x:2.12</text>
</g>
<!-- App(vname, (3&#45;12&#45;3&#45;13, /path/of/flow2.js, &quot;&quot;, /path/of/flow2.js, js))&#45;&gt;App(vname, (&quot;&quot;, /path/of/flow2.js, &quot;&quot;, /path/of/flow2.js, js)) -->
<g id="edge8" class="edge"><title>App(vname, (3&#45;12&#45;3&#45;13, /path/of/flow2.js, &quot;&quot;, /path/of/flow2.js, js))&#45;&gt;App(vname, (&quot;&quot;, /path/of/flow2.js, &quot;&quot;, /path/of/flow2.js, js))</title>
<path fill="none" stroke="black" d="M83.7107,-139.238C117.122,-140.372 165.653,-142.288 208,-145 227.056,-146.22 247.069,-147.691 266.857,-149.259"/>
<polygon fill="black" stroke="black" points="266.614,-152.751 276.862,-150.062 267.174,-145.774 266.614,-152.751"/>
<text text-anchor="middle" x="155" y="-148.8" font-family="Times,serif" font-size="14.00">/kythe/edge/childof</text>
</g>
<!-- App(vname, (3&#45;12&#45;3&#45;13, /path/of/flow2.js, &quot;&quot;, /path/of/flow2.js, js))&#45;&gt;App(vname, (x#3&#45;12&#45;3&#45;13, /path/of/flow2.js, &quot;&quot;, /path/of/flow2.js, js)) -->
<g id="edge7" class="edge"><title>App(vname, (3&#45;12&#45;3&#45;13, /path/of/flow2.js, &quot;&quot;, /path/of/flow2.js, js))&#45;&gt;App(vname, (x#3&#45;12&#45;3&#45;13, /path/of/flow2.js, &quot;&quot;, /path/of/flow2.js, js))</title>
<path fill="none" stroke="black" d="M82.2867,-127.071C88.8556,-125.323 95.6107,-123.573 102,-122 156.447,-108.595 216.461,-95.0041 269.43,-83.4095"/>
<polygon fill="black" stroke="black" points="270.212,-86.8212 279.235,-81.2682 268.719,-79.9823 270.212,-86.8212"/>
<text text-anchor="middle" x="155" y="-125.8" font-family="Times,serif" font-size="14.00">/kythe/edge/defines</text>
</g>
</g>
</svg>
