<svg width="100%"
 viewBox="0.00 0.00 528.00 292.90" xmlns="http://www.w3.org/2000/svg" xmlns:xlink="http://www.w3.org/1999/xlink">
<g id="graph0" class="graph" transform="scale(1 1) rotate(0) translate(4 288.9)">
<title>G</title>
<polygon fill="white" stroke="none" points="-4,4 -4,-288.9 524,-288.9 524,4 -4,4"/>
<!-- App(vname, (&quot;&quot;, /path/of/flow2.js, &quot;&quot;, /path/of/flow2.js, js)) -->
<g id="node1" class="node"><title>App(vname, (&quot;&quot;, /path/of/flow2.js, &quot;&quot;, /path/of/flow2.js, js))</title>
<polygon fill="none" stroke="black" points="219,-156.9 219,-178.9 481,-178.9 481,-156.9 219,-156.9"/>
<text text-anchor="start" x="223.5" y="-164.2" font-family="Times,serif" font-size="14.00">(&quot;&quot;, /path/of/flow2.js, &quot;&quot;, /path/of/flow2.js, js)</text>
<polygon fill="none" stroke="black" points="219,-133.9 219,-154.9 386,-154.9 386,-133.9 219,-133.9"/>
<text text-anchor="start" x="256.5" y="-140.7" font-family="Times,serif" font-size="14.00">/kythe/node/kind</text>
<polygon fill="none" stroke="black" points="388,-133.9 388,-154.9 481,-154.9 481,-133.9 388,-133.9"/>
<text text-anchor="start" x="425" y="-140.7" font-family="Times,serif" font-size="14.00">file</text>
<polygon fill="none" stroke="black" points="219,-110.9 219,-131.9 386,-131.9 386,-110.9 219,-110.9"/>
<text text-anchor="start" x="273.5" y="-117.7" font-family="Times,serif" font-size="14.00">/kythe/text</text>
<polygon fill="none" stroke="black" points="388,-110.9 388,-131.9 481,-131.9 481,-110.9 388,-110.9"/>
<text text-anchor="start" x="428.5" y="-117.7" font-family="Times,serif" font-size="14.00">...</text>
<polygon fill="none" stroke="black" points="216,-107.9 216,-181.9 484,-181.9 484,-107.9 216,-107.9"/>
</g>
<!-- App(vname, (3&#45;9&#45;3&#45;10, /path/of/flow2.js, &quot;&quot;, /path/of/flow2.js, js)) -->
<g id="node2" class="node"><title>App(vname, (3&#45;9&#45;3&#45;10, /path/of/flow2.js, &quot;&quot;, /path/of/flow2.js, js))</title>
<ellipse fill="none" stroke="black" cx="19" cy="-182.9" rx="18.6979" ry="18.6979"/>
<text text-anchor="middle" x="19" y="-179.2" font-family="Times,serif" font-size="14.00">@</text>
</g>
<!-- App(vname, (3&#45;9&#45;3&#45;10, /path/of/flow2.js, &quot;&quot;, /path/of/flow2.js, js))&#45;&gt;App(vname, (&quot;&quot;, /path/of/flow2.js, &quot;&quot;, /path/of/flow2.js, js)) -->
<g id="edge2" class="edge"><title>App(vname, (3&#45;9&#45;3&#45;10, /path/of/flow2.js, &quot;&quot;, /path/of/flow2.js, js))&#45;&gt;App(vname, (&quot;&quot;, /path/of/flow2.js, &quot;&quot;, /path/of/flow2.js, js))</title>
<path fill="none" stroke="black" d="M35.5873,-173.418C41.7321,-170.139 48.9882,-166.81 56,-164.9 101.144,-152.605 151.573,-146.555 197.696,-143.852"/>
<polygon fill="black" stroke="black" points="197.978,-147.342 207.776,-143.31 197.602,-140.352 197.978,-147.342"/>
<text text-anchor="middle" x="109" y="-168.7" font-family="Times,serif" font-size="14.00">/kythe/edge/childof</text>
</g>
<!-- App(vname, (x#2&#45;12&#45;2&#45;13, /path/of/flow2.js, &quot;&quot;, /path/of/flow2.js, js)) -->
<g id="node3" class="node"><title>App(vname, (x#2&#45;12&#45;2&#45;13, /path/of/flow2.js, &quot;&quot;, /path/of/flow2.js, js))</title>
<polygon fill="none" stroke="black" points="192,-255.9 192,-277.9 509,-277.9 509,-255.9 192,-255.9"/>
<text text-anchor="start" x="196.5" y="-263.2" font-family="Times,serif" font-size="14.00">(x#2&#45;12&#45;2&#45;13, /path/of/flow2.js, &quot;&quot;, /path/of/flow2.js, js)</text>
<polygon fill="none" stroke="black" points="192,-232.9 192,-253.9 377,-253.9 377,-232.9 192,-232.9"/>
<text text-anchor="start" x="238.5" y="-239.7" font-family="Times,serif" font-size="14.00">/kythe/node/kind</text>
<polygon fill="none" stroke="black" points="379,-232.9 379,-253.9 509,-253.9 509,-232.9 379,-232.9"/>
<text text-anchor="start" x="425.5" y="-239.7" font-family="Times,serif" font-size="14.00">js/todo</text>
<polygon fill="none" stroke="black" points="188.5,-230.4 188.5,-281.4 511.5,-281.4 511.5,-230.4 188.5,-230.4"/>
</g>
<!-- App(vname, (3&#45;9&#45;3&#45;10, /path/of/flow2.js, &quot;&quot;, /path/of/flow2.js, js))&#45;&gt;App(vname, (x#2&#45;12&#45;2&#45;13, /path/of/flow2.js, &quot;&quot;, /path/of/flow2.js, js)) -->
<g id="edge1" class="edge"><title>App(vname, (3&#45;9&#45;3&#45;10, /path/of/flow2.js, &quot;&quot;, /path/of/flow2.js, js))&#45;&gt;App(vname, (x#2&#45;12&#45;2&#45;13, /path/of/flow2.js, &quot;&quot;, /path/of/flow2.js, js))</title>
<path fill="none" stroke="black" d="M38.0696,-184.648C65.1811,-187.449 117.91,-193.592 162,-202.9 189.2,-208.642 218.259,-216.177 245.164,-223.757"/>
<polygon fill="black" stroke="black" points="244.396,-227.177 254.972,-226.548 246.312,-220.444 244.396,-227.177"/>
<text text-anchor="middle" x="109" y="-206.7" font-family="Times,serif" font-size="14.00">/kythe/edge/ref</text>
</g>
<!-- App(vname, (2&#45;12&#45;2&#45;13, /path/of/flow2.js, &quot;&quot;, /path/of/flow2.js, js)) -->
<g id="node4" class="node"><title>App(vname, (2&#45;12&#45;2&#45;13, /path/of/flow2.js, &quot;&quot;, /path/of/flow2.js, js))</title>
<ellipse fill="none" stroke="black" cx="19" cy="-258.9" rx="18.6979" ry="18.6979"/>
<text text-anchor="middle" x="19" y="-255.2" font-family="Times,serif" font-size="14.00">@</text>
</g>
<!-- App(vname, (2&#45;12&#45;2&#45;13, /path/of/flow2.js, &quot;&quot;, /path/of/flow2.js, js))&#45;&gt;App(vname, (&quot;&quot;, /path/of/flow2.js, &quot;&quot;, /path/of/flow2.js, js)) -->
<g id="edge4" class="edge"><title>App(vname, (2&#45;12&#45;2&#45;13, /path/of/flow2.js, &quot;&quot;, /path/of/flow2.js, js))&#45;&gt;App(vname, (&quot;&quot;, /path/of/flow2.js, &quot;&quot;, /path/of/flow2.js, js))</title>
<path fill="none" stroke="black" d="M34.8437,-248.7C41.1278,-244.798 48.679,-240.633 56,-237.9 100.915,-221.133 115.916,-231.119 162,-217.9 189.002,-210.155 217.538,-200.051 243.966,-189.84"/>
<polygon fill="black" stroke="black" points="245.558,-192.976 253.6,-186.078 243.012,-186.455 245.558,-192.976"/>
<text text-anchor="middle" x="109" y="-241.7" font-family="Times,serif" font-size="14.00">/kythe/edge/childof</text>
</g>
<!-- App(vname, (2&#45;12&#45;2&#45;13, /path/of/flow2.js, &quot;&quot;, /path/of/flow2.js, js))&#45;&gt;App(vname, (x#2&#45;12&#45;2&#45;13, /path/of/flow2.js, &quot;&quot;, /path/of/flow2.js, js)) -->
<g id="edge3" class="edge"><title>App(vname, (2&#45;12&#45;2&#45;13, /path/of/flow2.js, &quot;&quot;, /path/of/flow2.js, js))&#45;&gt;App(vname, (x#2&#45;12&#45;2&#45;13, /path/of/flow2.js, &quot;&quot;, /path/of/flow2.js, js))</title>
<path fill="none" stroke="black" d="M38.1571,-258.735C64.5983,-258.494 116.451,-258.021 170.344,-257.529"/>
<polygon fill="black" stroke="black" points="170.458,-261.028 180.426,-257.437 170.394,-254.029 170.458,-261.028"/>
<text text-anchor="middle" x="109" y="-261.7" font-family="Times,serif" font-size="14.00">/kythe/edge/defines</text>
</g>
<!-- App(vname, (5&#45;0&#45;5&#45;2, /path/of/flow2.js, &quot;&quot;, /path/of/flow2.js, js)) -->
<g id="node5" class="node"><title>App(vname, (5&#45;0&#45;5&#45;2, /path/of/flow2.js, &quot;&quot;, /path/of/flow2.js, js))</title>
<ellipse fill="none" stroke="black" cx="19" cy="-35.9002" rx="18.6979" ry="18.6979"/>
<text text-anchor="middle" x="19" y="-32.2002" font-family="Times,serif" font-size="14.00">@</text>
</g>
<!-- App(vname, (5&#45;0&#45;5&#45;2, /path/of/flow2.js, &quot;&quot;, /path/of/flow2.js, js))&#45;&gt;App(vname, (&quot;&quot;, /path/of/flow2.js, &quot;&quot;, /path/of/flow2.js, js)) -->
<g id="edge6" class="edge"><title>App(vname, (5&#45;0&#45;5&#45;2, /path/of/flow2.js, &quot;&quot;, /path/of/flow2.js, js))&#45;&gt;App(vname, (&quot;&quot;, /path/of/flow2.js, &quot;&quot;, /path/of/flow2.js, js))</title>
<path fill="none" stroke="black" d="M37.8878,-33.2337C66.1449,-29.9224 122.004,-27.1011 162,-48.9002 173.398,-55.1123 169.724,-63.9699 180,-71.9002 193.22,-82.1017 208.082,-91.1798 223.367,-99.1681"/>
<polygon fill="black" stroke="black" points="221.903,-102.35 232.406,-103.746 225.066,-96.1053 221.903,-102.35"/>
<text text-anchor="middle" x="109" y="-52.7002" font-family="Times,serif" font-size="14.00">/kythe/edge/childof</text>
</g>
<!-- App(vname, (id#2&#45;0&#45;4&#45;1, /path/of/flow2.js, &quot;&quot;, /path/of/flow2.js, js)) -->
<g id="node6" class="node"><title>App(vname, (id#2&#45;0&#45;4&#45;1, /path/of/flow2.js, &quot;&quot;, /path/of/flow2.js, js))</title>
<polygon fill="none" stroke="black" points="197,-33.9002 197,-55.9002 504,-55.9002 504,-33.9002 197,-33.9002"/>
<text text-anchor="start" x="201.5" y="-41.2002" font-family="Times,serif" font-size="14.00">(id#2&#45;0&#45;4&#45;1, /path/of/flow2.js, &quot;&quot;, /path/of/flow2.js, js)</text>
<polygon fill="none" stroke="black" points="197,-10.9002 197,-31.9002 377,-31.9002 377,-10.9002 197,-10.9002"/>
<text text-anchor="start" x="241" y="-17.7002" font-family="Times,serif" font-size="14.00">/kythe/node/kind</text>
<polygon fill="none" stroke="black" points="379,-10.9002 379,-31.9002 504,-31.9002 504,-10.9002 379,-10.9002"/>
<text text-anchor="start" x="423" y="-17.7002" font-family="Times,serif" font-size="14.00">js/todo</text>
<polygon fill="none" stroke="black" points="193.5,-8.40021 193.5,-59.4002 506.5,-59.4002 506.5,-8.40021 193.5,-8.40021"/>
</g>
<!-- App(vname, (5&#45;0&#45;5&#45;2, /path/of/flow2.js, &quot;&quot;, /path/of/flow2.js, js))&#45;&gt;App(vname, (id#2&#45;0&#45;4&#45;1, /path/of/flow2.js, &quot;&quot;, /path/of/flow2.js, js)) -->
<g id="edge5" class="edge"><title>App(vname, (5&#45;0&#45;5&#45;2, /path/of/flow2.js, &quot;&quot;, /path/of/flow2.js, js))&#45;&gt;App(vname, (id#2&#45;0&#45;4&#45;1, /path/of/flow2.js, &quot;&quot;, /path/of/flow2.js, js))</title>
<path fill="none" stroke="black" d="M33.789,-24.4665C40.1394,-19.9234 48.0267,-15.2298 56,-12.9002 103.186,0.886491 156.38,1.31339 204.366,-3.51327"/>
<polygon fill="black" stroke="black" points="204.202,-7.01607 214.523,-4.62005 204.961,-0.0572657 204.202,-7.01607"/>
<text text-anchor="middle" x="109" y="-16.7002" font-family="Times,serif" font-size="14.00">/kythe/edge/ref</text>
</g>
<!-- App(vname, (2&#45;0&#45;4&#45;1, /path/of/flow2.js, &quot;&quot;, /path/of/flow2.js, js)) -->
<g id="node7" class="node"><title>App(vname, (2&#45;0&#45;4&#45;1, /path/of/flow2.js, &quot;&quot;, /path/of/flow2.js, js))</title>
<ellipse fill="none" stroke="black" cx="19" cy="-101.9" rx="18.6979" ry="18.6979"/>
<text text-anchor="middle" x="19" y="-98.2002" font-family="Times,serif" font-size="14.00">@</text>
</g>
<!-- App(vname, (2&#45;0&#45;4&#45;1, /path/of/flow2.js, &quot;&quot;, /path/of/flow2.js, js))&#45;&gt;App(vname, (&quot;&quot;, /path/of/flow2.js, &quot;&quot;, /path/of/flow2.js, js)) -->
<g id="edge8" class="edge"><title>App(vname, (2&#45;0&#45;4&#45;1, /path/of/flow2.js, &quot;&quot;, /path/of/flow2.js, js))&#45;&gt;App(vname, (&quot;&quot;, /path/of/flow2.js, &quot;&quot;, /path/of/flow2.js, js))</title>
<path fill="none" stroke="black" d="M38.1571,-104.273C69.0374,-108.309 134.577,-116.875 197.55,-125.106"/>
<polygon fill="black" stroke="black" points="197.26,-128.598 207.629,-126.423 198.167,-121.657 197.26,-128.598"/>
<text text-anchor="middle" x="109" y="-123.7" font-family="Times,serif" font-size="14.00">/kythe/edge/childof</text>
</g>
<!-- App(vname, (2&#45;0&#45;4&#45;1, /path/of/flow2.js, &quot;&quot;, /path/of/flow2.js, js))&#45;&gt;App(vname, (id#2&#45;0&#45;4&#45;1, /path/of/flow2.js, &quot;&quot;, /path/of/flow2.js, js)) -->
<g id="edge7" class="edge"><title>App(vname, (2&#45;0&#45;4&#45;1, /path/of/flow2.js, &quot;&quot;, /path/of/flow2.js, js))&#45;&gt;App(vname, (id#2&#45;0&#45;4&#45;1, /path/of/flow2.js, &quot;&quot;, /path/of/flow2.js, js))</title>
<path fill="none" stroke="black" d="M36.6698,-95.2477C42.6931,-93.0131 49.5888,-90.6473 56,-88.9002 79.7584,-82.4259 126.337,-73.1656 175.488,-64.085"/>
<polygon fill="black" stroke="black" points="176.144,-67.5231 185.346,-62.2722 174.878,-60.6385 176.144,-67.5231"/>
<text text-anchor="middle" x="109" y="-92.7002" font-family="Times,serif" font-size="14.00">/kythe/edge/defines</text>
</g>
</g>
</svg>
