<svg width="100%"
 viewBox="0.00 0.00 622.00 326.00" xmlns="http://www.w3.org/2000/svg" xmlns:xlink="http://www.w3.org/1999/xlink">
<g id="graph0" class="graph" transform="scale(1 1) rotate(0) translate(4 322)">
<title>G</title>
<polygon fill="white" stroke="none" points="-4,4 -4,-322 618,-322 618,4 -4,4"/>
<!-- App(vname, (&quot;&quot;, /path/of/flow2.js, &quot;&quot;, /path/of/flow2.js, js)) -->
<g id="node1" class="node"><title>App(vname, (&quot;&quot;, /path/of/flow2.js, &quot;&quot;, /path/of/flow2.js, js))</title>
<polygon fill="none" stroke="black" points="295,-152 295,-174 557,-174 557,-152 295,-152"/>
<text text-anchor="start" x="299.5" y="-159.3" font-family="Times,serif" font-size="14.00">(&quot;&quot;, /path/of/flow2.js, &quot;&quot;, /path/of/flow2.js, js)</text>
<polygon fill="none" stroke="black" points="295,-129 295,-150 462,-150 462,-129 295,-129"/>
<text text-anchor="start" x="332.5" y="-135.8" font-family="Times,serif" font-size="14.00">/kythe/node/kind</text>
<polygon fill="none" stroke="black" points="464,-129 464,-150 557,-150 557,-129 464,-129"/>
<text text-anchor="start" x="501" y="-135.8" font-family="Times,serif" font-size="14.00">file</text>
<polygon fill="none" stroke="black" points="295,-106 295,-127 462,-127 462,-106 295,-106"/>
<text text-anchor="start" x="349.5" y="-112.8" font-family="Times,serif" font-size="14.00">/kythe/text</text>
<polygon fill="none" stroke="black" points="464,-106 464,-127 557,-127 557,-106 464,-106"/>
<text text-anchor="start" x="504.5" y="-112.8" font-family="Times,serif" font-size="14.00">...</text>
<polygon fill="none" stroke="black" points="292,-103 292,-177 560,-177 560,-103 292,-103"/>
</g>
<!-- App(vname, (7&#45;0&#45;7&#45;2, /path/of/flow2.js, &quot;&quot;, /path/of/flow2.js, js)) -->
<g id="node2" class="node"><title>App(vname, (7&#45;0&#45;7&#45;2, /path/of/flow2.js, &quot;&quot;, /path/of/flow2.js, js))</title>
<ellipse fill="none" stroke="blue" cx="48" cy="-161" rx="38.1938" ry="38.1938"/>
<text text-anchor="middle" x="48" y="-157.3" font-family="Times,serif" font-size="14.00">@RefX</text>
</g>
<!-- App(vname, (7&#45;0&#45;7&#45;2, /path/of/flow2.js, &quot;&quot;, /path/of/flow2.js, js))&#45;&gt;App(vname, (&quot;&quot;, /path/of/flow2.js, &quot;&quot;, /path/of/flow2.js, js)) -->
<g id="edge2" class="edge"><title>App(vname, (7&#45;0&#45;7&#45;2, /path/of/flow2.js, &quot;&quot;, /path/of/flow2.js, js))&#45;&gt;App(vname, (&quot;&quot;, /path/of/flow2.js, &quot;&quot;, /path/of/flow2.js, js))</title>
<path fill="none" stroke="black" d="M86.4269,-158.91C130.157,-156.467 205.254,-152.273 273.628,-148.454"/>
<polygon fill="black" stroke="black" points="273.873,-151.946 283.662,-147.894 273.483,-144.957 273.873,-151.946"/>
<text text-anchor="middle" x="167" y="-160.8" font-family="Times,serif" font-size="14.00">/kythe/edge/childof</text>
</g>
<!-- App(vname, (id#3&#45;0&#45;6&#45;1, /path/of/flow2.js, &quot;&quot;, /path/of/flow2.js, js)) -->
<g id="node3" class="node"><title>App(vname, (id#3&#45;0&#45;6&#45;1, /path/of/flow2.js, &quot;&quot;, /path/of/flow2.js, js))</title>
<polygon fill="none" stroke="blue" points="250,-251 250,-273 603,-273 603,-251 250,-251"/>
<text text-anchor="start" x="254.5" y="-258.3" font-family="Times,serif" font-size="14.00">(id#3&#45;0&#45;6&#45;1, /path/of/flow2.js, &quot;&quot;, /path/of/flow2.js, js) = VarX</text>
<polygon fill="none" stroke="blue" points="250,-228 250,-249 453,-249 453,-228 250,-228"/>
<text text-anchor="start" x="305.5" y="-234.8" font-family="Times,serif" font-size="14.00">/kythe/node/kind</text>
<polygon fill="none" stroke="blue" points="455,-228 455,-249 603,-249 603,-228 455,-228"/>
<text text-anchor="start" x="510.5" y="-234.8" font-family="Times,serif" font-size="14.00">js/todo</text>
<polygon fill="none" stroke="blue" points="246.5,-225.5 246.5,-276.5 605.5,-276.5 605.5,-225.5 246.5,-225.5"/>
</g>
<!-- App(vname, (7&#45;0&#45;7&#45;2, /path/of/flow2.js, &quot;&quot;, /path/of/flow2.js, js))&#45;&gt;App(vname, (id#3&#45;0&#45;6&#45;1, /path/of/flow2.js, &quot;&quot;, /path/of/flow2.js, js)) -->
<g id="edge1" class="edge"><title>App(vname, (7&#45;0&#45;7&#45;2, /path/of/flow2.js, &quot;&quot;, /path/of/flow2.js, js))&#45;&gt;App(vname, (id#3&#45;0&#45;6&#45;1, /path/of/flow2.js, &quot;&quot;, /path/of/flow2.js, js))</title>
<path fill="none" stroke="black" d="M85.5261,-168.864C133.771,-179.258 213.443,-196.444 220,-198 247.675,-204.569 277.349,-212.009 305.284,-219.193"/>
<polygon fill="black" stroke="black" points="304.53,-222.613 315.087,-221.722 306.278,-215.835 304.53,-222.613"/>
<text text-anchor="middle" x="167" y="-201.8" font-family="Times,serif" font-size="14.00">/kythe/edge/ref</text>
</g>
<!-- App(vname, (3&#45;0&#45;6&#45;1, /path/of/flow2.js, &quot;&quot;, /path/of/flow2.js, js)) -->
<g id="node4" class="node"><title>App(vname, (3&#45;0&#45;6&#45;1, /path/of/flow2.js, &quot;&quot;, /path/of/flow2.js, js))</title>
<ellipse fill="none" stroke="blue" cx="48" cy="-270" rx="48.1917" ry="48.1917"/>
<text text-anchor="middle" x="48" y="-266.3" font-family="Times,serif" font-size="14.00">@ParamX</text>
</g>
<!-- App(vname, (3&#45;0&#45;6&#45;1, /path/of/flow2.js, &quot;&quot;, /path/of/flow2.js, js))&#45;&gt;App(vname, (&quot;&quot;, /path/of/flow2.js, &quot;&quot;, /path/of/flow2.js, js)) -->
<g id="edge4" class="edge"><title>App(vname, (3&#45;0&#45;6&#45;1, /path/of/flow2.js, &quot;&quot;, /path/of/flow2.js, js))&#45;&gt;App(vname, (&quot;&quot;, /path/of/flow2.js, &quot;&quot;, /path/of/flow2.js, js))</title>
<path fill="none" stroke="black" d="M92.4326,-251.131C99.5842,-248.264 106.96,-245.449 114,-243 160.244,-226.914 173.357,-227.887 220,-213 247.446,-204.24 276.731,-194.221 304.325,-184.471"/>
<polygon fill="black" stroke="black" points="305.754,-187.678 314.009,-181.036 303.414,-181.08 305.754,-187.678"/>
<text text-anchor="middle" x="167" y="-246.8" font-family="Times,serif" font-size="14.00">/kythe/edge/childof</text>
</g>
<!-- App(vname, (3&#45;0&#45;6&#45;1, /path/of/flow2.js, &quot;&quot;, /path/of/flow2.js, js))&#45;&gt;App(vname, (id#3&#45;0&#45;6&#45;1, /path/of/flow2.js, &quot;&quot;, /path/of/flow2.js, js)) -->
<g id="edge3" class="edge"><title>App(vname, (3&#45;0&#45;6&#45;1, /path/of/flow2.js, &quot;&quot;, /path/of/flow2.js, js))&#45;&gt;App(vname, (id#3&#45;0&#45;6&#45;1, /path/of/flow2.js, &quot;&quot;, /path/of/flow2.js, js))</title>
<path fill="none" stroke="black" d="M96.2399,-267.613C130.285,-265.893 178.74,-263.444 228.019,-260.954"/>
<polygon fill="black" stroke="black" points="228.401,-264.439 238.212,-260.439 228.048,-257.448 228.401,-264.439"/>
<text text-anchor="middle" x="167" y="-269.8" font-family="Times,serif" font-size="14.00">/kythe/edge/defines</text>
</g>
<!-- App(vname, (5&#45;9&#45;5&#45;10, /path/of/flow2.js, &quot;&quot;, /path/of/flow2.js, js)) -->
<g id="node5" class="node"><title>App(vname, (5&#45;9&#45;5&#45;10, /path/of/flow2.js, &quot;&quot;, /path/of/flow2.js, js))</title>
<ellipse fill="none" stroke="black" cx="48" cy="-18" rx="18.6979" ry="18.6979"/>
<text text-anchor="middle" x="48" y="-14.3" font-family="Times,serif" font-size="14.00">@</text>
</g>
<!-- App(vname, (5&#45;9&#45;5&#45;10, /path/of/flow2.js, &quot;&quot;, /path/of/flow2.js, js))&#45;&gt;App(vname, (&quot;&quot;, /path/of/flow2.js, &quot;&quot;, /path/of/flow2.js, js)) -->
<g id="edge6" class="edge"><title>App(vname, (5&#45;9&#45;5&#45;10, /path/of/flow2.js, &quot;&quot;, /path/of/flow2.js, js))&#45;&gt;App(vname, (&quot;&quot;, /path/of/flow2.js, &quot;&quot;, /path/of/flow2.js, js))</title>
<path fill="none" stroke="black" d="M66.8858,-19.7087C108.064,-23.7564 207.039,-34.1761 220,-42 231.721,-49.0757 227.179,-58.6112 238,-67 251.469,-77.4424 266.617,-86.5591 282.309,-94.4755"/>
<polygon fill="black" stroke="black" points="281.08,-97.7696 291.603,-98.9988 284.143,-91.4755 281.08,-97.7696"/>
<text text-anchor="middle" x="167" y="-45.8" font-family="Times,serif" font-size="14.00">/kythe/edge/childof</text>
</g>
<!-- App(vname, (x#3&#45;12&#45;3&#45;13, /path/of/flow2.js, &quot;&quot;, /path/of/flow2.js, js)) -->
<g id="node6" class="node"><title>App(vname, (x#3&#45;12&#45;3&#45;13, /path/of/flow2.js, &quot;&quot;, /path/of/flow2.js, js))</title>
<polygon fill="none" stroke="black" points="268,-29 268,-51 585,-51 585,-29 268,-29"/>
<text text-anchor="start" x="272.5" y="-36.3" font-family="Times,serif" font-size="14.00">(x#3&#45;12&#45;3&#45;13, /path/of/flow2.js, &quot;&quot;, /path/of/flow2.js, js)</text>
<polygon fill="none" stroke="black" points="268,-6 268,-27 453,-27 453,-6 268,-6"/>
<text text-anchor="start" x="314.5" y="-12.8" font-family="Times,serif" font-size="14.00">/kythe/node/kind</text>
<polygon fill="none" stroke="black" points="455,-6 455,-27 585,-27 585,-6 455,-6"/>
<text text-anchor="start" x="501.5" y="-12.8" font-family="Times,serif" font-size="14.00">js/todo</text>
<polygon fill="none" stroke="black" points="264.5,-3.5 264.5,-54.5 587.5,-54.5 587.5,-3.5 264.5,-3.5"/>
</g>
<!-- App(vname, (5&#45;9&#45;5&#45;10, /path/of/flow2.js, &quot;&quot;, /path/of/flow2.js, js))&#45;&gt;App(vname, (x#3&#45;12&#45;3&#45;13, /path/of/flow2.js, &quot;&quot;, /path/of/flow2.js, js)) -->
<g id="edge5" class="edge"><title>App(vname, (5&#45;9&#45;5&#45;10, /path/of/flow2.js, &quot;&quot;, /path/of/flow2.js, js))&#45;&gt;App(vname, (x#3&#45;12&#45;3&#45;13, /path/of/flow2.js, &quot;&quot;, /path/of/flow2.js, js))</title>
<path fill="none" stroke="black" d="M66.5721,-14.5525C79.6034,-12.1778 97.8344,-9.23624 114,-8 156.801,-4.7269 202.936,-5.49827 246.23,-8.12199"/>
<polygon fill="black" stroke="black" points="246.089,-11.62 256.292,-8.7678 246.537,-4.63441 246.089,-11.62"/>
<text text-anchor="middle" x="167" y="-11.8" font-family="Times,serif" font-size="14.00">/kythe/edge/ref</text>
</g>
<!-- App(vname, (3&#45;12&#45;3&#45;13, /path/of/flow2.js, &quot;&quot;, /path/of/flow2.js, js)) -->
<g id="node7" class="node"><title>App(vname, (3&#45;12&#45;3&#45;13, /path/of/flow2.js, &quot;&quot;, /path/of/flow2.js, js))</title>
<ellipse fill="none" stroke="black" cx="48" cy="-84" rx="18.6979" ry="18.6979"/>
<text text-anchor="middle" x="48" y="-80.3" font-family="Times,serif" font-size="14.00">@</text>
</g>
<!-- App(vname, (3&#45;12&#45;3&#45;13, /path/of/flow2.js, &quot;&quot;, /path/of/flow2.js, js))&#45;&gt;App(vname, (&quot;&quot;, /path/of/flow2.js, &quot;&quot;, /path/of/flow2.js, js)) -->
<g id="edge8" class="edge"><title>App(vname, (3&#45;12&#45;3&#45;13, /path/of/flow2.js, &quot;&quot;, /path/of/flow2.js, js))&#45;&gt;App(vname, (&quot;&quot;, /path/of/flow2.js, &quot;&quot;, /path/of/flow2.js, js))</title>
<path fill="none" stroke="black" d="M66.6376,-87.1022C79.7014,-89.3714 97.9444,-92.4802 114,-95 165.917,-103.148 222.797,-111.535 273.554,-118.829"/>
<polygon fill="black" stroke="black" points="273.225,-122.317 283.62,-120.272 274.219,-115.388 273.225,-122.317"/>
<text text-anchor="middle" x="167" y="-114.8" font-family="Times,serif" font-size="14.00">/kythe/edge/childof</text>
</g>
<!-- App(vname, (3&#45;12&#45;3&#45;13, /path/of/flow2.js, &quot;&quot;, /path/of/flow2.js, js))&#45;&gt;App(vname, (x#3&#45;12&#45;3&#45;13, /path/of/flow2.js, &quot;&quot;, /path/of/flow2.js, js)) -->
<g id="edge7" class="edge"><title>App(vname, (3&#45;12&#45;3&#45;13, /path/of/flow2.js, &quot;&quot;, /path/of/flow2.js, js))&#45;&gt;App(vname, (x#3&#45;12&#45;3&#45;13, /path/of/flow2.js, &quot;&quot;, /path/of/flow2.js, js))</title>
<path fill="none" stroke="black" d="M66.9896,-81.7075C98.172,-77.7054 164.27,-69.0967 220,-61 228.612,-59.7489 237.424,-58.4489 246.321,-57.1204"/>
<polygon fill="black" stroke="black" points="247.027,-60.5538 256.397,-55.6096 245.989,-53.6312 247.027,-60.5538"/>
<text text-anchor="middle" x="167" y="-79.8" font-family="Times,serif" font-size="14.00">/kythe/edge/defines</text>
</g>
</g>
</svg>
